<svg xmlns="http://www.w3.org/2000/svg" width="1280" height="360" viewBox="0 0 1280 360" role="img" aria-labelledby="title desc">
<title id="title">Guilherme Coelho — estudante de ADS, Python em prática</title>
<desc id="desc">Banner em azul escuro, dourado e branco, inspirado na paleta da foto de perfil. CS50P em andamento, Projeto Connor e Git/GitHub.</desc>
<defs>
<linearGradient id="bg" x1="0" y1="0" x2="1" y2="1"><stop stop-color="#0B1220"/><stop offset="1" stop-color="#12264B"/></linearGradient>
<linearGradient id="gold" x1="0" y1="0" x2="1" y2="1"><stop stop-color="#F8DE70"/><stop offset="1" stop-color="#D9A925"/></linearGradient>
<pattern id="grid" width="40" height="40" patternUnits="userSpaceOnUse"><path d="M40 0H0V40" fill="none" stroke="#90B4FF" stroke-opacity=".07"/></pattern>
<clipPath id="rounded"><rect width="1280" height="360" rx="24"/></clipPath>
</defs>
<g clip-path="url(#rounded)">
<rect width="1280" height="360" fill="url(#bg)"/>
<rect x="795" width="485" height="360" fill="url(#grid)"/>
<path d="M1100 -30L1320 60V420L860 360Z" fill="#2459D3" opacity=".12"/>
<circle cx="1170" cy="50" r="165" fill="none" stroke="#5276BD" stroke-opacity=".17"/>
<circle cx="1170" cy="50" r="205" fill="none" stroke="#5276BD" stroke-opacity=".11"/>
<rect x="0" y="0" width="8" height="360" fill="url(#gold)"/>
<g font-family="Segoe UI, Arial, sans-serif">
<text x="60" y="67" fill="#F5D261" font-size="17" font-weight="600" letter-spacing="3">CGUUILERME / DEV EM FORMAÇÃO</text>
<text x="57" y="149" fill="#F4F7FC" font-size="62" font-weight="700" letter-spacing="-2">Guilherme <tspan fill="#F5D261">Coelho</tspan></text>
<text x="60" y="199" fill="#BDCCE3" font-size="25">Estudante de ADS · Python em prática</text>
<g font-size="17" font-weight="500">
<rect x="60" y="249" width="218" height="42" rx="21" fill="#17243A" stroke="#324567"/>
<circle cx="82" cy="270" r="4" fill="#F5D261"/>
<text x="97" y="276" fill="#E8EEF8">CS50P em andamento</text>
<rect x="291" y="249" width="177" height="42" rx="21" fill="#17243A" stroke="#324567"/>
<text x="314" y="276" fill="#E8EEF8">Projeto Connor</text>
<rect x="481" y="249" width="152" height="42" rx="21" fill="#17243A" stroke="#324567"/>
<text x="506" y="276" fill="#E8EEF8">Git / GitHub</text>
</g>
</g>
<g fill="none" stroke-linecap="round" stroke-linejoin="round">
<path d="M972 117L918 173L972 229" stroke="#729AF4" stroke-width="11"/>
<path d="M1102 117L1156 173L1102 229" stroke="#729AF4" stroke-width="11"/>
<path d="M1065 95L1012 251" stroke="url(#gold)" stroke-width="12"/>
<path d="M932 279H1138" stroke="#41597D" stroke-width="1"/>
</g>
<text x="1035" y="309" text-anchor="middle" fill="#91A7C9" font-family="Consolas, monospace" font-size="14" letter-spacing="2">APRENDER. CRIAR. EVOLUIR.</text>
</g>
</svg>
